<svg xmlns="http://www.w3.org/2000/svg" viewBox="0 0 800 800">
  <!-- Trident design for TITAN -->
  <defs>
    <!-- Gradient for the trident -->
    <linearGradient id="tridentGradient" x1="0%" y1="0%" x2="100%" y2="100%">
      <stop offset="0%" stop-color="#FF4500" />
      <stop offset="50%" stop-color="#FF6600" />
      <stop offset="100%" stop-color="#FF8C00" />
    </linearGradient>
    
    <!-- Glow effect -->
    <filter id="glow" x="-20%" y="-20%" width="140%" height="140%">
      <feGaussianBlur stdDeviation="15" result="blur" />
      <feComposite in="SourceGraphic" in2="blur" operator="over" />
    </filter>
  </defs>
  
  <g transform="translate(400, 400) scale(0.75)">
    <!-- Trident handle -->
    <path d="M0,400 L0,-200" 
          stroke="url(#tridentGradient)" stroke-width="60" stroke-linecap="round" />
    
    <!-- Trident base connector -->
    <path d="M-100,-180 L100,-180" 
          stroke="url(#tridentGradient)" stroke-width="40" stroke-linecap="round" />
    
    <!-- Trident prongs -->
    <!-- Center prong -->
    <path d="M0,-180 L0,-400" 
          stroke="url(#tridentGradient)" stroke-width="40" stroke-linecap="round" />
    
    <!-- Left prong -->
    <path d="M-100,-180 L-150,-380" 
          stroke="url(#tridentGradient)" stroke-width="40" stroke-linecap="round" />
    
    <!-- Right prong -->
    <path d="M100,-180 L150,-380" 
          stroke="url(#tridentGradient)" stroke-width="40" stroke-linecap="round" />
    
    <!-- Prong tips - sharp ends -->
    <path d="M0,-400 L-30,-350 L30,-350 Z" fill="#FF4500" />
    <path d="M-150,-380 L-120,-330 L-180,-330 Z" fill="#FF4500" />
    <path d="M150,-380 L120,-330 L180,-330 Z" fill="#FF4500" />
    
    <!-- Decorative elements -->
    <circle cx="0" cy="-180" r="25" fill="#FFD700" />
    <circle cx="-100" cy="-180" r="15" fill="#FFD700" />
    <circle cx="100" cy="-180" r="15" fill="#FFD700" />
    
    <!-- Handle base decoration -->
    <path d="M-60,380 L60,380 L40,320 L-40,320 Z" fill="#3A1A00" />
    
    <!-- Subtle glow effect -->
    <g filter="url(#glow)" opacity="0.7">
      <path d="M0,380 L0,-200 M-100,-180 L100,-180 M0,-180 L0,-400 M-100,-180 L-150,-380 M100,-180 L150,-380" 
            stroke="#FF8C00" stroke-width="15" stroke-linecap="round" opacity="0.5" />
    </g>
  </g>
</svg>